<svg xmlns="http://www.w3.org/2000/svg" xml:space="preserve" width="192" height="192" data-version="2">
    <path fill="#ff4136" d="M91.84 147.67q-5.7 0-10.86-2.46-5.16-2.46-8.85-7.55-3.85-4.92-6.01-12.47-2.16-7.55-2.16-17.71 0-19.87 5.7-34.65 5.7-14.78 14.48-24.64 8.62-9.86 18.56-14.63 9.93-4.77 18.55-4.77 8.32 0 13.55 3.61 5.24 3.62 7.7 9.63 2.47 6.01 2.47 13.4l-21.1 4q-1.39-6.16-3.7-8.78-2.31-2.61-5.23-2.61-3.39 0-7.01 3.69-3.62 3.7-7.08 9.93-3.47 6.24-6.24 13.94-2.77 7.7-4.54 15.86-1.77 8.17-2.08 15.4 0 9.55 2.85 13.63t7.31 4.08q4.31 0 8.55-2.77 4.23-2.77 7.08-7.47 2.85-4.69 3.01-10.55l-16.48 2.47L103.23 91l14.17-1.85q5.85-.77 12.4-1.84 6.54-1.08 11.47-2.01-1.08 15.71-6.08 27.49-5.01 11.78-12.4 19.48-7.39 7.7-15.47 11.55-8.09 3.85-15.48 3.85" paint-order="stroke"/>
</svg>
